HIERARCHY
ROOT Hips
{
	OFFSET 193.743393 91.357132 495.993408
	CHANNELS 6 Xposition Yposition Zposition Zrotation Yrotation Xrotation 
	JOINT LeftUpLeg
	{
		OFFSET 0.103456 1.857829 10.548507
		CHANNELS 3 Zrotation Yrotation Xrotation
		JOINT LeftLeg
		{
			OFFSET 43.500000 -0.000031 0.000008
			CHANNELS 3 Zrotation Yrotation Xrotation
			JOINT LeftFoot
			{
				OFFSET 42.372200 0.000015 -0.000002
				CHANNELS 3 Zrotation Yrotation Xrotation
				JOINT LeftToe
				{
					OFFSET 17.299992 -0.000004 0.000000
					CHANNELS 3 Zrotation Yrotation Xrotation
					End Site
					{
						OFFSET 0.000000 0.000000 0.000000
					}
				}
			}
		}
	}
	JOINT RightUpLeg
	{
		OFFSET 0.103460 1.857824 -10.548508
		CHANNELS 3 Zrotation Yrotation Xrotation
		JOINT RightLeg
		{
			OFFSET 43.500042 -0.000019 0.000004
			CHANNELS 3 Zrotation Yrotation Xrotation
			JOINT RightFoot
			{
				OFFSET 42.372265 -0.000019 0.000016
				CHANNELS 3 Zrotation Yrotation Xrotation
				JOINT RightToe
				{
					OFFSET 17.299999 -0.000001 -0.000006
					CHANNELS 3 Zrotation Yrotation Xrotation
					End Site
					{
						OFFSET 0.000000 0.000000 0.000000
					}
				}
			}
		}
	}
	JOINT Spine
	{
		OFFSET 6.901965 -2.603734 0.000001
		CHANNELS 3 Zrotation Yrotation Xrotation
		JOINT Spine1
		{
			OFFSET 12.588102 0.000006 -0.000006
			CHANNELS 3 Zrotation Yrotation Xrotation
			JOINT Spine2
			{
				OFFSET 12.343201 -0.000002 0.000010
				CHANNELS 3 Zrotation Yrotation Xrotation
				JOINT Neck
				{
					OFFSET 25.832899 -0.000004 -0.000009
					CHANNELS 3 Zrotation Yrotation Xrotation
					JOINT Head
					{
						OFFSET 11.766603 0.000001 0.000007
						CHANNELS 3 Zrotation Yrotation Xrotation
						End Site
						{
							OFFSET 0.000000 0.000000 0.000000
						}
					}
				}
				JOINT LeftShoulder
				{
					OFFSET 19.745899 -1.480371 6.000098
					CHANNELS 3 Zrotation Yrotation Xrotation
					JOINT LeftArm
					{
						OFFSET 11.284129 -0.000011 -0.000015
						CHANNELS 3 Zrotation Yrotation Xrotation
						JOINT LeftForeArm
						{
							OFFSET 33.000046 0.000011 0.000030
							CHANNELS 3 Zrotation Yrotation Xrotation
							JOINT LeftHand
							{
								OFFSET 25.200010 0.000012 -0.000000
								CHANNELS 3 Zrotation Yrotation Xrotation
								End Site
								{
									OFFSET 0.000000 0.000000 0.000000
								}
							}
						}
					}
				}
				JOINT RightShoulder
				{
					OFFSET 19.746092 -1.480375 -6.000075
					CHANNELS 3 Zrotation Yrotation Xrotation
					JOINT RightArm
					{
						OFFSET 11.284135 -0.000010 -0.000014
						CHANNELS 3 Zrotation Yrotation Xrotation
						JOINT RightForeArm
						{
							OFFSET 33.000092 0.000016 0.000013
							CHANNELS 3 Zrotation Yrotation Xrotation
							JOINT RightHand
							{
								OFFSET 25.199780 0.000135 0.000426
								CHANNELS 3 Zrotation Yrotation Xrotation
								End Site
								{
									OFFSET 0.000000 0.000000 0.000000
								}
							}
						}
					}
				}
			}
		}
	}
}
MOTION
Frames: 11
Frame Time: 0.033333
181.767807 89.894081 -189.953506 98.692709 7.712735 -75.029116 178.457202 0.194312 174.014137 -31.301531 0.996361 -6.154438 79.930412 3.701782 -2.311323 21.454553 0.003092 3e-06 132.398067 -1.35119 177.569086 -40.437923 0.989857 -1.43669 73.896261 2.486328 4.970321 21.45456 -0.003108 -1.8e-05 10.084698 1.329899 -3.705011 10.0652 2.977034 -7.282413 9.749434 2.933254 -7.300123 8.244316 -0.763773 0.475818 -8.315616 9.039206 -2.131426 48.347733 -81.861224 130.237829 -44.578968 13.801069 -1.858484 -113.596011 -0.738435 3.393365 -16.554459 -7.303964 38.487658 -143.905037 79.119511 38.199964 18.424857 -18.706469 -38.654472 -98.474819 0.921431 -2.790793 -27.937007 15.5897 -42.572412 
181.635605 87.289436 -194.585098 99.317986 6.386844 -73.744077 -179.592352 -0.025097 176.568832 -36.365102 2.46529 -7.320384 79.95457 4.302154 -3.063635 21.454558 0.003094 -3e-06 135.991484 -2.271298 172.551192 -36.850633 2.768711 -0.958235 74.196195 1.967946 4.598716 21.45456 -0.003104 -1.7e-05 9.777457 1.721459 -4.291498 9.407678 3.785956 -8.433001 9.092578 3.735304 -8.455494 12.530934 4.573242 0.905917 -10.757024 4.89571 -0.253662 40.339551 -80.576916 138.180696 -42.332252 12.630021 0.745777 -115.124491 -1.16959 3.48768 -17.518551 -3.611776 38.778939 -129.355915 83.096723 52.726 19.39829 -10.085622 -42.268161 -102.209498 0.238987 -2.910005 -28.651752 15.614492 -41.466212 
181.371307 84.316452 -199.403107 100.198998 4.431825 -73.603505 -179.106398 -1.842605 179.053819 -45.625145 2.093384 -7.811079 79.487843 4.085567 -5.321263 21.454543 0.003093 6e-06 139.104958 -3.844409 174.796985 -39.701192 2.37358 -1.729662 75.837797 2.657603 5.241462 21.45456 -0.003107 -1.6e-05 9.487778 2.113001 -4.138952 8.808834 4.534584 -8.110986 8.493123 4.485822 -8.13801 17.326312 7.943786 0.849423 -12.763 2.304427 0.308376 45.763009 -79.940261 132.861577 -41.049191 17.725068 1.21306 -115.818712 -0.870373 3.495923 -14.760032 -3.056193 41.205992 -103.56499 85.557279 78.486052 21.626821 -3.665765 -45.590174 -106.45541 -0.504422 -3.046415 -29.554382 15.288912 -41.925627 
181.105896 81.389931 -204.234497 101.156994 1.011966 -75.658395 -179.483957 -4.053291 -179.107504 -59.565417 0.699992 -7.636542 76.113183 3.403012 -6.936349 21.454551 0.003088 -1e-06 138.450585 -6.647403 177.852853 -52.33947 2.100744 -2.89827 83.106286 2.774346 3.518016 21.454557 -0.003094 -1.6e-05 9.838467 2.325953 -3.206341 9.539408 4.908068 -6.215296 9.222082 4.870663 -6.24471 19.81966 11.238018 0.66394 -13.984965 0.792547 0.401148 56.506264 -80.097854 122.270386 -40.373723 25.90889 1.005119 -115.589299 -0.784675 3.480388 -14.268111 -3.429636 45.246062 -94.728187 86.163704 87.306285 23.444713 -3.335645 -46.210362 -109.655402 -1.087212 -3.146126 -29.293322 13.066105 -42.063266 
180.855804 78.958008 -208.716507 101.834507 -2.829991 -78.553405 178.406686 -5.872697 -178.807891 -76.407605 0.707732 -4.610717 72.067798 1.108511 -6.609652 21.454551 0.003087 -1e-06 140.576358 -9.686909 -178.026067 -60.555761 -0.770658 -4.564474 88.320329 3.529988 1.776773 21.454555 -0.00309 -1.6e-05 10.850834 2.494352 -2.056262 11.613237 5.182378 -3.85507 11.294513 5.159141 -3.886299 17.874941 13.516179 -0.162193 -12.99223 -0.121428 0.067228 74.652335 -82.354323 104.176982 -40.645551 34.778702 -0.112786 -113.906703 -1.152029 3.435236 -15.22987 -2.627437 46.121122 -111.509061 84.855736 70.566058 21.677323 -9.252722 -43.68811 -112.038387 -1.530774 -3.218582 -29.388754 12.502514 -42.70753 
180.1884 77.567001 -213.185196 101.995495 -4.666763 -79.173879 172.711674 -6.378802 -177.997516 -91.693015 2.221143 -2.39983 73.102695 -0.436671 -6.384797 21.454551 0.003087 8e-06 143.261975 -10.630599 -177.621446 -65.327904 -0.910586 -4.74338 93.579916 3.415918 0.816225 21.45456 -0.003113 -1.8e-05 11.575487 2.693364 -1.39482 13.093324 5.527124 -2.477881 12.773925 5.512198 -2.511292 12.326434 14.085379 -1.42374 -9.056263 -0.172588 -0.509729 123.942593 -83.422278 54.865728 -39.074471 44.380326 -0.778404 -109.338297 -1.751739 3.281785 -15.70316 -2.474372 44.715517 -138.349962 79.727255 43.810083 14.351243 -15.942464 -37.734152 -113.443916 -1.953144 -3.2497 -29.683254 13.662427 -42.657837 
179.532104 77.292557 -217.243896 101.219708 -5.061206 -79.130125 164.516021 -5.821898 -177.48767 -104.1443 3.289557 -3.83422 75.927258 1.118337 -4.919081 21.454551 0.003093 4e-06 146.212166 -10.14791 -178.65734 -67.166229 -0.027665 -4.763693 97.357332 3.245479 -0.194429 21.454557 -0.003105 -1.7e-05 11.757453 2.69056 -1.04224 13.47505 5.484031 -1.765208 13.155533 5.473393 -1.798356 13.292389 11.74591 -1.814443 -8.414583 -0.238853 -1.158223 154.285518 -77.766423 24.638519 -28.603837 53.972503 0.895654 -103.054393 -2.331375 3.047679 -12.416072 -2.717675 46.015647 -153.749006 74.902245 28.302986 3.42113 -23.044648 -32.509983 -110.596397 -1.107755 -3.185562 -30.791449 12.984138 -46.051799 
178.905701 77.865288 -220.878799 100.897603 -4.85551 -80.418893 155.613757 -6.264501 -178.203255 -112.705594 4.012218 -6.448868 77.192995 2.84409 -5.47112 21.454555 0.003085 -3e-06 149.594708 -10.175005 -178.792933 -66.187641 -0.446144 -5.511836 99.423608 3.656618 -1.312091 21.45456 -0.00312 -1.9e-05 11.669271 2.580212 -0.262888 13.334139 5.173306 -0.226205 13.014628 5.172 -0.257522 16.972267 8.777527 -1.942864 -8.540153 0.439292 -1.960683 168.853601 -74.919457 9.925773 -13.745663 64.53063 5.225326 -97.422806 -3.17032 2.856742 -11.943282 -2.945525 49.736707 -161.754043 70.113319 20.168932 -8.221952 -30.331357 -25.634284 -106.781518 0.009016 -3.096433 -30.550459 7.191212 -53.839905 
178.187805 79.613823 -224.346298 99.901304 -3.617757 -82.299073 146.409107 -6.932096 -179.860437 -115.774398 4.230512 -7.898402 77.795062 4.181074 -4.449475 21.454557 0.003094 6e-06 153.439585 -9.512602 179.327805 -62.199842 -0.305064 -6.264631 99.840365 4.087638 -2.179889 21.454557 -0.003113 -1.8e-05 11.498092 2.248571 0.801761 13.028574 4.392289 1.853439 12.709622 4.403539 1.826851 17.994383 4.431671 -2.507648 -8.392616 2.263594 -3.214094 -177.884518 -73.829079 -3.623899 8.891033 68.237299 20.550016 -96.350678 -3.244892 2.814274 -11.239602 -7.011914 40.833234 -172.917959 68.080669 8.641004 -16.044628 -39.207226 -16.378937 -106.349522 0.29038 -3.096979 -32.893624 7.743423 -56.825637 
177.364594 82.605263 -227.820999 98.566972 -2.461452 -82.898184 138.658441 -7.167605 179.135986 -112.97889 3.949912 -7.72364 77.835169 4.336578 -3.592576 21.454551 0.003096 4e-06 159.194265 -7.869203 176.742059 -54.118833 0.765864 -6.439581 98.288259 4.109551 -2.648103 21.454558 -0.003103 -1.8e-05 11.419962 1.755345 1.929819 12.89059 3.284394 4.045086 12.572778 3.308885 4.025208 16.836893 1.980438 -3.249858 -7.716273 3.414448 -4.299036 -172.43109 -74.862603 -9.221318 22.426711 63.493978 31.520165 -97.264073 -2.476043 2.801174 -9.372386 -10.523501 30.509205 177.239994 67.834304 -1.545049 -26.635412 -46.647262 -3.151521 -106.626507 -0.122679 -3.080469 -33.523733 14.603009 -51.74565 
176.512604 86.384621 -231.427704 96.937187 -0.76762 -81.314823 132.934633 -5.7045 178.760039 -104.980786 3.163331 -7.049535 77.188248 3.986739 -3.341995 21.454543 0.003096 -3e-06 166.197313 -5.42849 174.616942 -42.071541 2.015675 -5.23013 94.080706 3.214943 -2.372934 21.45456 -0.003111 -1.9e-05 11.077952 1.108772 2.653193 12.190557 1.931443 5.409205 11.873806 1.964172 5.397505 16.493244 0.047259 -4.086418 -7.276872 5.199837 -5.687375 -170.14422 -76.597259 -11.565622 25.538837 54.628013 35.339802 -98.50731 -2.177113 2.835547 -10.11528 -9.811189 30.742603 172.935049 69.716342 -5.942023 -42.757397 -50.221817 13.135056 -104.888995 0.308721 -3.033802 -34.831718 17.803392 -52.36594 
